<?xml version="1.0" encoding="utf-8"?>
<svg version="1.1" id="Layer_1" xmlns="http://www.w3.org/2000/svg" xmlns:xlink="http://www.w3.org/1999/xlink" x="0px" y="0px"
	 viewBox="0 0 32 32" style="enable-background:new 0 0 32 32;" xml:space="preserve">
<style type="text/css">
	.st0{fill:#B5B5B5;}
</style>
<path class="st0" d="M12.82,12.02c0,1.32-1.07,2.39-2.39,2.39s-2.39-1.07-2.39-2.39s1.07-2.39,2.39-2.39S12.82,10.69,12.82,12.02z"
	/>
<path class="st0" d="M5.64,6.43c-1.32,0-2.39,1.07-2.39,2.39v14.35c0,1.32,1.07,2.39,2.39,2.39h20.73c1.32,0,2.39-1.07,2.39-2.39
	V8.83c0-1.32-1.07-2.39-2.39-2.39H5.64z M26.37,8.03c0.44,0,0.8,0.36,0.8,0.8v9.57l-6.02-3.1c-0.31-0.15-0.68-0.09-0.92,0.15
	l-5.92,5.92l-4.24-2.83c-0.32-0.21-0.74-0.17-1,0.1l-4.22,3.75v0.86c0-0.02,0-0.04,0-0.06V8.83c0-0.44,0.36-0.8,0.8-0.8H26.37z"/>
</svg>
